<svg xmlns="http://www.w3.org/2000/svg" viewBox="0 0 48 49">
  <rect x="1" y="1" width="46" height="47" rx="8" fill="#C21A26"/>
  <path d="M32.5 13.5557V18.0747H21.8696V21.4417H31.5532V25.6063H21.8696V29.9481H32.5V34.5557H15.5V13.5557H32.5Z" fill="white"/>
  <path d="M38.5 5.05566H9.5C8.70435 5.05566 7.94129 5.37173 7.37868 5.93434C6.81607 6.49695 6.5 7.26001 6.5 8.05566V41.5557C6.5 42.3513 6.81607 43.1144 7.37868 43.677C7.94129 44.2396 8.70435 44.5557 9.5 44.5557H38.5C39.2957 44.5557 40.0587 44.2396 40.6213 43.677C41.1839 43.1144 41.5 42.3513 41.5 41.5557V8.05566C41.5 7.26001 41.1839 6.49695 40.6213 5.93434C40.0587 5.37173 39.2957 5.05566 38.5 5.05566ZM38.5 41.5557H9.5V8.05566H38.5V41.5557Z" fill="white"/>
</svg>
